<?xml version="1.0" encoding="utf-8"?>
<!-- Generator: Adobe Illustrator 19.0.0, SVG Export Plug-In . SVG Version: 6.00 Build 0)  -->
<svg version="1.1" id="Layer_1" xmlns="http://www.w3.org/2000/svg" xmlns:xlink="http://www.w3.org/1999/xlink" x="0px" y="0px"
	 viewBox="1 0 162 50" style="enable-background:new 1 0 162 50;" xml:space="preserve">
<style type="text/css">
	.st0{fill:#F37121;}
	.st1{fill:#8C8B89;}
	.st2{fill:#7BC143;}
	.st3{fill:#6FB03C;}
	.st4{fill:#92C63E;}
	.st5{fill:#3C803D;}
	.st6{fill:#A1C357;}
	.st7{fill:#49A146;}
</style>
<g id="XMLID_2_">
	<g id="XMLID_246_">
		<g id="XMLID_115_">
			<path id="XMLID_128_" class="st0" d="M4.3,27.3c0-1.5-0.9-1.6-1.3-1.6H1v-1h9.9v1h-2c-0.5,0-1.3,0-1.3,1.6v9.5l7.3-6.8
				c1-0.9,2.8-2.7,2.8-3.5c0-0.4-0.4-0.7-1-0.7H15v-1h9.2v1h-0.8c-1.6,0-3.9,1.8-5.2,2.9l-6.8,6.1l9.7,11.3c1.3,1.5,2.3,2.2,4.5,2.2
				v1h-6L9.1,36.8l-1.5,1.4v8.6c0,1.5,0.9,1.5,1.3,1.5h2v1H1v-1h2c0.5,0,1.3,0,1.3-1.6V27.3z"/>
			<path id="XMLID_126_" class="st0" d="M26.1,49.3v-0.8h1.4c0.8,0,1.3-0.1,1.3-0.8V35.3c0-0.7-0.8-0.7-2.2-0.7h-0.4v-0.8
				c0.6,0,2.2-0.2,5.3-1.3v3.6c0.7-1.6,1.9-3.3,4-3.3c1.5,0,2.8,0.8,2.8,2.1c0,0.8-0.5,1.8-1.5,1.8s-1.5-0.8-1.5-1.4
				c0-0.3,0-1.1-0.9-1.1c-1.4,0-2.9,2.8-2.9,5.2v8.5c0,0.7,0.5,0.8,1.3,0.8h1.4v0.7H26.1z"/>
			<path id="XMLID_123_" class="st0" d="M38.6,49.3v-0.8h1.4c0.8,0,1.3-0.1,1.3-0.8V35.3c0-0.7-0.8-0.7-2.2-0.7h-0.5v-0.8
				c0.6,0,2.2-0.2,5.3-1.3v15.3c0,0.7,0.5,0.8,1.3,0.8h1.4v0.8H38.6z M42.6,24.7c1,0,1.7,0.7,1.7,1.7s-0.7,1.7-1.7,1.7
				s-1.7-0.7-1.7-1.7S41.5,24.7,42.6,24.7z"/>
			<path id="XMLID_121_" class="st0" d="M58,33.1l0.1,4.4h-0.9v-0.6c0-1.5-2.1-3.4-4.7-3.4c-2,0-2.6,1.5-2.6,2.5
				c0,1.7,2.1,2.4,4,3.3c2,1,4.9,2.4,4.9,5.5c0,1.9-1.5,4.9-5.6,4.9c-1.8,0-3.5-0.7-4.6-1.1v0.8h-0.9l0-4.6h0.9
				c0.1,2.4,2.6,4.2,4.9,4.2c2,0,3.1-1.5,3.1-3.1c0-2.3-2.3-3-5-4.5c-2.3-1.2-3.6-2.3-3.6-4.4c0-2.5,1.9-4.4,5.1-4.4
				c0.9,0,2.5,0.2,4,1v-0.6H58z"/>
			<path id="XMLID_119_" class="st0" d="M60.2,49.3v-0.8h1.4c0.8,0,1.3-0.1,1.3-0.8v-23c0-0.7-0.8-0.7-2.2-0.7h-0.4v-0.8
				c2-0.2,3.4-0.6,5.3-1.3v12.5c1.6-1.1,3.2-1.8,5-1.8c5,0,5,5.3,5,6.1v8.9c0,0.7,0.5,0.8,1.3,0.8h1.4v0.9H70v-0.8h1.4
				c0.8,0,1.3-0.1,1.3-0.8v-9.2c0-3.3-1.6-4.6-3.5-4.6c-1.3,0-2.7,0.8-3.5,1.8v12c0,0.7,0.5,0.8,1.3,0.8h1.4v0.7H60.2z"/>
			<path id="XMLID_116_" class="st0" d="M78.7,49.3v-0.8h1.4c0.8,0,1.3-0.1,1.3-0.8V35.3c0-0.7-0.8-0.7-2.2-0.7h-0.4v-0.8
				c0.6,0,2.2-0.2,5.3-1.3v15.3c0,0.7,0.5,0.8,1.3,0.8h1.4v0.8H78.7z M82.7,24.7c1,0,1.7,0.7,1.7,1.7s-0.7,1.7-1.7,1.7
				c-1,0-1.7-0.7-1.7-1.7S81.6,24.7,82.7,24.7z"/>
		</g>
	</g>
	<path id="XMLID_244_" class="st1" d="M94.8,49.3v-1h2c0.5,0,1.3,0,1.3-1.6V27.3c0-1.5-0.9-1.6-1.3-1.6h-2v-1h18.7l0.4,5h-1.1
		l-0.1-1c-0.1-1.2-1.6-2.9-8.7-2.9h-1.2c-1,0-1.3,0.6-1.3,1.6v8.6h1.6c6.3,0,6.2-1.1,6.2-2v-0.9h1.1v6.8h-1.1v-0.9
		c0-0.9,0.1-2-6.2-2h-1.6v9.9c0,1.5,0.9,1.6,1.3,1.6h2.7v1C105.5,49.3,94.8,49.3,94.8,49.3z"/>
	<path id="XMLID_243_" class="st1" d="M114.9,49.3v-0.8h1.4c0.8,0,1.3-0.1,1.3-0.8V35.3c0-0.7-0.8-0.7-2.2-0.7H115v-0.8
		c0.6,0,2.2-0.2,5.3-1.3v15.3c0,0.7,0.5,0.8,1.3,0.8h1.4v0.8H114.9z"/>
	<path id="XMLID_242_" class="st2" d="M118.9,24.7c1,0,1.7,0.7,1.7,1.7s-0.7,1.7-1.7,1.7c-1,0-1.7-0.7-1.7-1.7
		S117.9,24.7,118.9,24.7z"/>
	<g id="XMLID_151_">
		<path id="XMLID_234_" class="st3" d="M144.9,3.3c0,0,0,6.7-11.6,6.4c-6.3-0.2-12.7,3.4-11.1,13.8c1.9-3.5,7.1-10.9,15.5-9.6
			c0,0-8.2-0.3-13.9,11.4c3.4,2,11.8,6,17.5-0.4C148.6,16.4,144.9,3.3,144.9,3.3L144.9,3.3z"/>
		<path id="XMLID_226_" class="st4" d="M123.7,25.2c9,0.1,17.7-4.8,22.1-13.1c0.2-5-0.9-8.8-0.9-8.8s0,6.7-11.6,6.4
			c-6.3-0.2-12.7,3.4-11.1,13.8c1.9-3.5,7.1-10.9,15.5-9.6C137.6,13.8,129.4,13.5,123.7,25.2L123.7,25.2z"/>
		<path id="XMLID_208_" class="st5" d="M128.8,7.2c-0.2,0.4-0.6,0.6-1,0.4s-0.6-0.6-0.4-1s0.6-0.6,1-0.4
			C128.8,6.3,129,6.8,128.8,7.2L128.8,7.2z"/>
		<path id="XMLID_200_" class="st4" d="M131.1,7.3c-0.1,0.3-0.4,0.4-0.7,0.3c-0.3-0.1-0.4-0.4-0.3-0.7c0.1-0.3,0.4-0.4,0.7-0.3
			C131.1,6.7,131.2,7,131.1,7.3L131.1,7.3z"/>
		<path id="XMLID_163_" class="st6" d="M133.6,2.6c-0.3,0.7-1.1,1-1.8,0.7c-0.7-0.3-1-1.1-0.7-1.8s1.1-1,1.8-0.7
			C133.5,1,133.9,1.9,133.6,2.6L133.6,2.6z"/>
		<path id="XMLID_158_" class="st7" d="M135.4,6.8C135.3,7,135,7.1,134.8,7c-0.2-0.1-0.3-0.4-0.2-0.6c0.1-0.2,0.4-0.3,0.6-0.2
			C135.4,6.3,135.5,6.5,135.4,6.8L135.4,6.8z"/>
		<path id="XMLID_152_" class="st7" d="M140.6,6.2c-0.3,0.6-1,1-1.7,0.7c-0.6-0.3-1-1-0.7-1.7c0.3-0.6,1-1,1.7-0.7
			C140.5,4.8,140.8,5.5,140.6,6.2L140.6,6.2z"/>
	</g>
	<path id="XMLID_147_" class="st1" d="M124,49.3v-0.8h1.4c0.8,0,1.3-0.1,1.3-0.8V35.3c0-0.7-0.8-0.7-2.2-0.7h-0.4v-0.8
		c0.6,0,2.2-0.2,5.3-1.3v3.6c0.7-1.6,1.9-3.3,4-3.3c1.5,0,2.8,0.8,2.8,2.1c0,0.8-0.5,1.8-1.5,1.8c-1,0-1.5-0.8-1.5-1.4
		c0-0.3,0-1.1-0.9-1.1c-1.4,0-2.9,2.8-2.9,5.2v8.5c0,0.7,0.5,0.8,1.3,0.8h1.4v0.7H124z"/>
	<path id="XMLID_145_" class="st1" d="M136.5,49.3v-0.8h1.4c0.8,0,1.3-0.1,1.3-0.8V35.3c0-0.7-0.8-0.7-2.2-0.7h-0.4v-0.8
		c0.6,0,2.2-0.2,5.3-1.3v2c1.6-1.1,2.9-1.7,4.4-1.7c1.7,0,3.2,0.6,4,1.9c1.9-1.5,3.5-1.9,5-1.9c2.5,0,5.1,1.8,5.1,5.5v9.5
		c0,0.7,0.5,0.8,1.3,0.8h1.4v0.8h-7.6v-0.8h1c0.8,0,1.3-0.1,1.3-0.8v-9.4c0-3.2-1.8-4.5-3.5-4.5c-0.9,0-1.9,0.3-3.4,1.7
		c0.3,0.9,0.4,1.6,0.4,2.6v9.6c0,0.7,0.5,0.8,1.3,0.8h1v0.7h-7.2v-0.8h1c0.8,0,1.3-0.1,1.3-0.8v-9.6c0-2.2-0.8-4.2-3.1-4.2
		c-1.3,0-2.5,0.7-3.4,1.7v12.2c0,0.7,0.5,0.8,1.3,0.8h1v0.7H136.5z"/>
</g>
</svg>
